<?xml version="1.0" standalone="no"?>
<!DOCTYPE svg PUBLIC "-//W3C//DTD SVG 20010904//EN"
 "http://www.w3.org/TR/2001/REC-SVG-20010904/DTD/svg10.dtd">
<svg version="1.0" xmlns="http://www.w3.org/2000/svg"
 width="825.000000pt" height="846.000000pt" viewBox="0 0 825.000000 846.000000"
 preserveAspectRatio="xMidYMid meet">
 <!-- <defs>
<mask id="theMask">
<rect id="theSquare" x="-100" y="0" width="100" height="100" fill="#fff" />
</mask>
</defs>  -->
<metadata>
Created by potrace 1.10, written by Peter Selinger 2001-2011
</metadata>
<g transform="translate(0.000000,846.000000) scale(0.100000,-0.100000)"
fill="#000000" stroke="none" mask="url(#theMask)">
<path d="M365 8018 c-27 -4 -72 -12 -100 -17 -71 -11 -139 -44 -164 -79 l-21
-30 0 -934 c0 -890 1 -934 19 -961 20 -30 80 -67 110 -67 10 0 38 -7 62 -16
34 -11 88 -15 235 -15 105 0 208 3 230 6 61 11 136 32 174 48 68 30 64 -8 70
736 l5 675 70 18 c64 16 131 18 792 18 636 0 731 -2 798 -17 l75 -16 0 -655
c0 -632 1 -657 20 -696 20 -42 73 -77 135 -91 17 -3 48 -10 70 -15 57 -13
3067 -12 3125 1 98 22 116 27 147 43 18 10 42 29 53 43 20 25 20 37 20 964 l0
938 -35 34 c-20 19 -57 40 -87 50 -136 42 -347 57 -483 36 -33 -5 -85 -13
-115 -17 -30 -4 -82 -21 -114 -37 -47 -24 -62 -37 -72 -65 -10 -27 -13 -186
-13 -684 0 -559 -2 -652 -15 -664 -26 -26 -177 -31 -851 -31 -685 0 -817 5
-860 33 l-25 17 0 665 c1 751 6 699 -78 736 -45 20 -64 24 -212 47 -82 13
-2893 12 -2965 -1z"/>
<path d="M4225 5791 c-22 -10 -53 -34 -68 -54 l-28 -37 0 -448 c1 -246 -3
-453 -7 -460 -7 -10 -69 -13 -277 -13 -208 0 -270 3 -277 13 -4 7 -8 207 -7
444 0 416 -1 432 -20 465 -24 41 -64 72 -106 84 -48 14 -1888 18 -1959 5 -74
-14 -120 -48 -146 -108 -20 -44 -20 -68 -20 -1228 0 -1080 1 -1187 17 -1226
17 -45 38 -71 82 -100 24 -17 92 -18 1029 -18 l1002 0 39 24 c21 14 48 40 60
60 21 34 22 42 21 448 0 227 4 419 8 426 12 19 542 19 554 0 4 -7 8 -193 8
-413 0 -220 0 -413 0 -430 0 -39 58 -104 107 -122 52 -18 1952 -19 2004 -1 19
6 50 24 70 39 68 54 70 65 69 745 -1 619 -1 623 38 609 8 -3 227 -5 487 -5
l474 0 36 -35 c23 -24 35 -45 35 -64 0 -39 -40 -79 -87 -86 -21 -3 -175 -7
-343 -8 -339 -3 -369 -8 -400 -60 -19 -30 -20 -52 -20 -317 1 -309 0 -304 57
-342 26 -17 69 -18 763 -18 674 0 738 1 760 17 14 9 29 23 33 30 4 7 15 13 22
13 13 0 15 72 15 515 0 393 -3 515 -12 515 -7 0 -24 11 -38 25 l-27 26 -894 2
-894 2 -5 475 c-5 435 -7 478 -24 515 -25 54 -43 73 -93 96 -40 18 -76 19
-1020 19 -925 0 -980 -1 -1018 -19z m1790 -708 c0 -199 -4 -365 -8 -370 -13
-13 -128 -7 -172 9 -24 9 -49 28 -63 48 -22 33 -23 42 -21 213 1 199 1 200
-73 238 -34 17 -62 19 -307 19 -289 0 -325 -5 -378 -53 l-23 -20 0 -774 0
-773 42 -30 41 -30 308 0 c292 0 310 1 343 20 19 12 37 29 41 38 3 9 6 187 5
395 -1 419 1 428 63 461 25 13 52 17 117 14 l85 -3 2 -500 c2 -275 -1 -506 -5
-513 -7 -9 -168 -12 -762 -12 -414 0 -754 1 -756 3 -3 3 -6 1713 -4 1975 0 10
156 12 763 10 l762 -3 0 -362z m-2823 345 c6 -2 12 -1465 8 -1946 0 -10 -156
-12 -762 -10 l-763 3 -3 955 c-1 525 0 965 3 977 3 13 14 23 28 25 27 4 1477
0 1489 -4z"/>
<path d="M122 5726 c-35 -13 -58 -40 -82 -96 -13 -31 -15 -366 -18 -2740 -2
-2538 -1 -2708 15 -2753 10 -26 33 -63 52 -82 l34 -35 947 0 947 0 34 35 c74
73 69 -19 66 1410 -2 1115 -4 1284 -17 1315 -27 62 -49 87 -89 98 -50 16 -620
16 -690 1 -59 -12 -79 -35 -110 -124 -21 -59 -21 -70 -21 -1077 0 -927 -1
-1021 -16 -1060 -20 -52 -40 -75 -77 -95 -43 -22 -95 7 -125 70 l-22 48 0
2422 c-1 1519 -4 2439 -10 2467 -6 25 -13 61 -17 80 -9 51 -55 104 -101 118
-54 17 -654 14 -700 -2z"/>
</g>
</svg>

